<svg xmlns="http://www.w3.org/2000/svg" width="256" height="256"><path fill-opacity=".016" d="M0 128.004v128.004l128.25-.254 128.25-.254.254-127.75L257.008 0H0v128.004m.485.496c0 70.4.119 99.053.265 63.672.146-35.38.146-92.98 0-128C.604 29.153.485 58.1.485 128.5" fill="#1976D2" fill-rule="evenodd"/><path fill-opacity=".103" d="M31.714 32.786L6.943 57.572l.284 80.964c.261 74.414.426 81.328 2.039 85.464 4.252 10.902 15.121 20.643 26.194 23.475 8.941 2.287 175.139 2.287 184.08 0 11.389-2.913 22.329-12.922 26.206-23.975 1.622-4.623 1.754-11.779 1.754-95s-.132-90.377-1.754-95c-2.408-6.867-8.259-14.278-14.782-18.725C220.845 7.875 222.61 8 135.032 8H56.485L31.714 32.786m84.02 55.302c-9.706 2.287-19.014 10.699-22.68 20.498-3.247 8.678-2.944 9.768 3.259 11.723 6.314 1.991 13.787 7.082 17.216 11.731 3.831 5.192 2.92 5.816-1.779 1.219-8.628-8.44-21.135-11.809-32.786-8.833-14.091 3.6-19.42 11.025-19.448 27.095-.015 8.194.285 9.633 3.271 15.697 5.549 11.272 15.343 18.219 27.984 19.849 8.978 1.158 83.03 1.138 91.067-.024 3.487-.504 8.437-1.957 11-3.23 3.868-1.919 5.167-3.335 7.629-8.313 2.499-5.052 2.965-7.185 2.955-13.5-.014-8.779-1.69-12.975-7.624-19.089-2.19-2.256-6.972-5.501-10.628-7.212-5.829-2.728-7.696-3.108-15.159-3.086-6.396.019-9.928.581-14.213 2.26-7.513 2.944-14.939 9.702-17.69 16.098-2.566 5.965-3.334 6.471-1.94 1.279 3.167-11.798 14.62-22.619 26.249-24.8l3.806-.714-.657-4.953c-2.149-16.195-12.629-28.847-27.498-33.195-5.834-1.706-16.227-1.939-22.334-.5" fill="#1976D2" fill-rule="evenodd"/><path fill-opacity=".143" d="M31.711 32.8L6.921 57.669l.297 80.415c.274 74.145.435 80.767 2.067 84.916A42.097 42.097 0 0033 246.723c4.194 1.656 10.611 1.777 94.5 1.777h90l5.303-2.174a41.175 41.175 0 0022.523-22.523l2.174-5.303v-180l-2.174-5.303a41.175 41.175 0 00-22.523-22.523c-5.272-2.161-5.768-2.176-85.803-2.458l-80.5-.284L31.711 32.8m80.517 56.115c-11.959 4.426-21.881 15.832-24.714 28.411l-1.135 5.04-5.44 1.126c-19.2 3.973-31.308 21.091-28.768 40.669 1.53 11.792 8.698 21.68 19.611 27.052l6.676 3.287h100.084l6.687-3.292c15.514-7.638 22.279-24.144 16.734-40.827-1.887-5.678-3.352-7.944-8.375-12.96-6.65-6.639-11.806-9.034-21.709-10.083l-5.621-.596-.624-5.967c-1.296-12.402-9.718-24.168-21.751-30.39-4.7-2.429-6.715-2.823-15.883-3.102-8.504-.258-11.502.052-15.772 1.632" fill="#1976D2" fill-rule="evenodd"/><path fill-opacity=".243" d="M56.689 9.644c-.379.379-.689 8.541-.689 18.137 0 19.919-.95 23.137-8.004 27.101C44.543 56.823 42.711 57 26.091 57H7.955l.272 81.75.273 81.75 2.66 5.675c3.725 7.946 9.87 14.222 17.696 18.075l6.602 3.25h184.084l6.602-3.25c7.826-3.853 13.971-10.129 17.696-18.075l2.66-5.675V36.458l-3.25-6.602c-3.853-7.826-10.129-13.971-18.075-17.696L219.5 9.5l-81.061-.273c-44.583-.15-81.371.038-81.75.417m60.057 77.442c-13.751 3.241-24.872 14.018-29.246 28.341l-2.159 7.071-4.489.642c-10.209 1.461-21.465 10.261-26.584 20.785-2.367 4.867-2.712 6.781-2.712 15.075 0 8.349.337 10.192 2.779 15.217 5.459 11.23 15.337 18.623 27.776 20.788 4.263.742 21.197.997 50.889.765 51.135-.398 50.063-.231 59.92-9.356 10.953-10.141 14.291-24.14 9.04-37.907C197.361 136.45 184.201 127 172.008 127c-4.908 0-4.919-.007-5.523-3.75-2.655-16.439-9.254-26.504-21.485-32.769-8.011-4.103-19.429-5.475-28.254-3.395" fill="#1976D2" fill-rule="evenodd"/></svg>