<svg xmlns="http://www.w3.org/2000/svg" width="256" height="256"><path fill-opacity=".016" d="M0 128.004v128.004l128.25-.254 128.25-.254.254-127.75L257.008 0H0v128.004m.485.496c0 70.4.119 99.053.265 63.672.146-35.38.146-92.98 0-128C.604 29.153.485 58.1.485 128.5" fill="#1976D2" fill-rule="evenodd"/><path fill-opacity=".239" d="M113.66 30.048c-7.078 1.188-18.374 4.777-24.135 7.669-16.134 8.098-32.586 25.219-39.011 40.595l-1.478 3.537 2.909.639c1.599.351 3.561 1.636 4.36 2.854.869 1.327 3.806 2.955 7.323 4.06 29.746 9.34 49.42 34.639 52.944 68.079.626 5.943.639 5.964 2.076 3.221 1.45-2.767 3.352-2.848 3.352-.143 0 3.369 3.194.926 8.282-6.334 9.597-13.696 23.561-25.163 37.501-30.793 11.288-4.56 17.185-5.67 31.592-5.95 14.81-.287 15.592-.562 15.597-5.482.005-5.708-3.983-21.154-7.333-28.405-6.55-14.177-19.086-29.49-31.295-38.23-17.944-12.844-42.162-18.762-62.684-15.317M18.5 94.021C6.081 95.902-.076 97.269.207 98.083c.161.462 4.118 5.681 8.793 11.597 10.78 13.642 27.451 30.47 36.5 36.843 3.85 2.711 7.45 5.434 8 6.05 4.008 4.49 19.886 10.564 28.16 10.772 3.389.085 6.448-.129 6.799-.477s.339-1.824-.027-3.281c-.451-1.797-3.843-5.086-10.548-10.225-5.436-4.167-9.884-7.719-9.884-7.894 0-1.137 8.086 1.051 12.942 3.503 3.2 1.615 6.05 2.704 6.334 2.42 1.147-1.148 13.645 11.927 16.351 17.107 3.081 5.895 4.364 6.846 4.388 3.252.013-1.827.201-1.968 1-.75.876 1.333 1.094 1.333 1.97 0 1.38-2.102 1.251-4.23-.882-14.564-2.098-10.164-7.279-22.252-12.277-28.642-1.829-2.339-6.707-7.681-10.84-11.872-8.323-8.441-17.353-13.559-29.001-16.439-7.696-1.902-30.905-2.762-39.485-1.462m169.83 30.46c-43.686 7.927-69.75 40.731-71.921 90.519l-.501 11.5 2.758-5 2.758-5 .538 3.289c.296 1.809.978 3.351 1.516 3.427.538.075 3.712-3.397 7.053-7.717 7.014-9.067 17.057-17.296 28.649-23.472 4.469-2.381 7.868-3.914 7.554-3.405-.314.508-6.209 5.4-13.099 10.871-6.891 5.471-12.39 10.086-12.22 10.255.17.17 2.21.634 4.535 1.031 2.324.396 4.224 1.171 4.223 1.721-.018 6.356 21.401 3.678 36.739-4.593 11.614-6.262 19.483-12.293 32.472-24.886 10.803-10.473 25.594-27.329 30.067-34.262.972-1.508 2.108-2.531 2.525-2.274.416.257 1.51-.365 2.431-1.382 1.291-1.427 1.635-3.561 1.501-9.318l-.173-7.468-9.117-1.686c-20.9-3.863-44.122-4.72-58.288-2.15" fill="#1976D2" fill-rule="evenodd"/><path fill-opacity=".141" d="M21.643 94.059C9.246 95.499 1 97.163 1 98.226c0 1.734 14.795 19.618 24.963 30.176C45.32 148.5 63.749 159.121 78.932 158.93c10.339-.131 10.188-.459-5.919-12.927-8.169-6.323-14.733-11.617-14.585-11.764.569-.569 14.321 4.113 19.072 6.494 6.189 3.102 16.105 10.112 19.683 13.915 1.475 1.569 4.288 5.526 6.25 8.793l3.567 5.941-.007-7.941c-.004-4.485-.888-11.64-2.033-16.441-8.886-37.29-39.529-56.026-83.317-50.941m173.359 30.068c-36.928 4.274-61.519 24.214-72.393 58.702-3.472 11.012-5.613 23.669-5.591 33.052l.018 7.619 2.883-5.229c5.676-10.294 18.658-22.583 31.348-29.676 6.436-3.597 21.954-9.852 27.233-10.978l3-.64-4 3.55c-2.2 1.952-11.129 9.27-19.843 16.261L141.814 209.5l3.843.692c10.94 1.971 19.476.565 32.2-5.307 14.267-6.582 26.133-15.583 41.975-31.837 14.329-14.702 34.791-40.981 33.84-43.459-.878-2.288-31.632-6.668-45.172-6.433-3.3.057-9.374.494-13.498.971m58.637 9.567c-.982.982-.758 8.306.254 8.306 1.148 0 2.107-2.514 2.107-5.523 0-2.44-1.241-3.903-2.361-2.783" fill="#1976D2" fill-rule="evenodd"/><path fill-opacity=".518" d="M20.5 94.475c-.55.174-4.958.889-9.795 1.589s-8.977 1.567-9.199 1.927c-.496.802 11.265 15.686 20.893 26.44 16.448 18.371 36.243 31.353 51.101 33.515 3.85.56 8.524.681 10.388.268l3.387-.75-15.55-11.982c-8.553-6.59-15.18-12.119-14.726-12.286 1.511-.557 16.401 4.906 23.501 8.62 7.958 4.164 21.006 16.333 24.323 22.684l2.089 4 .044-4.619c.064-6.702-2.576-20.743-5.323-28.312-5.685-15.662-15.812-27.134-30.114-34.112-11.592-5.656-20.792-7.479-37.227-7.378-7.036.043-13.242.222-13.792.396" fill="#1976D2" fill-rule="evenodd"/></svg>